<?xml version="1.0" standalone="no"?>
<!DOCTYPE svg PUBLIC "-//W3C//DTD SVG 20010904//EN"
 "http://www.w3.org/TR/2001/REC-SVG-20010904/DTD/svg10.dtd">
<svg version="1.0" xmlns="http://www.w3.org/2000/svg"
 width="260.000000pt" height="65.000000pt" viewBox="0 0 260.000000 65.000000"
 preserveAspectRatio="xMidYMid meet">

<g transform="translate(0.000000,65.000000) scale(0.100000,-0.100000)"
fill="#000000" stroke="none">
<path d="M240 535 c-88 -40 -144 -126 -144 -225 0 -78 23 -129 82 -182 51 -46
99 -61 177 -56 82 5 147 44 190 112 27 44 30 58 30 126 0 68 -3 82 -30 126
-45 72 -109 108 -199 112 -48 1 -82 -3 -106 -13z m119 -104 c21 -11 45 -31 55
-45 16 -25 16 -26 -25 -52 -76 -47 -237 -103 -253 -86 -3 3 -6 20 -6 38 0 122
122 199 229 145z m171 -101 c24 -24 25 -38 4 -68 -14 -21 -22 -22 -137 -22
l-121 0 69 34 c39 19 84 44 100 55 38 26 60 26 85 1z"/>
<path d="M780 443 c-57 -21 -82 -89 -55 -146 27 -57 109 -77 156 -38 21 17 22
20 7 26 -9 4 -25 2 -37 -4 -31 -17 -56 -13 -79 12 -56 59 7 149 78 112 24 -12
30 -12 40 0 22 26 -63 55 -110 38z"/>
<path d="M1030 343 l0 -103 70 0 c56 0 70 3 70 15 0 12 -13 15 -55 15 l-55 0
0 88 c0 72 -3 89 -15 89 -12 0 -15 -18 -15 -104z"/>
<path d="M1324 431 c-36 -22 -58 -75 -48 -115 10 -40 59 -76 104 -76 109 0
147 145 50 195 -39 20 -68 19 -106 -4z m109 -43 c9 -11 17 -32 17 -46 0 -33
-37 -72 -67 -72 -30 0 -73 42 -73 70 0 70 77 100 123 48z"/>
<path d="M1634 427 c-25 -22 -27 -28 -19 -53 8 -22 21 -32 55 -43 25 -8 48
-19 52 -25 12 -18 -14 -38 -41 -33 -56 12 -64 12 -68 1 -5 -15 41 -34 81 -34
39 0 66 26 66 62 0 30 -14 44 -55 54 -36 8 -55 22 -55 39 0 19 27 26 57 14 18
-7 30 -6 37 1 15 15 -4 30 -46 36 -27 5 -40 1 -64 -19z"/>
<path d="M1934 431 c-60 -37 -66 -121 -12 -166 37 -31 95 -34 129 -6 22 18 23
20 6 27 -10 3 -23 2 -30 -5 -20 -20 -64 -13 -86 15 -51 64 8 146 80 110 23
-11 30 -12 39 -1 29 35 -77 58 -126 26z"/>
<path d="M2261 428 c-5 -13 -21 -50 -36 -83 -46 -104 -47 -105 -26 -105 10 0
23 11 29 25 10 22 18 25 61 25 44 0 49 -3 55 -25 4 -16 13 -25 26 -25 11 0 20
2 20 3 0 2 -19 48 -43 103 -45 103 -69 126 -86 82z m56 -105 c-3 -2 -19 -3
-35 -1 l-30 3 16 39 15 39 19 -38 c11 -20 17 -39 15 -42z"/>
<path d="M2408 425 c2 -14 6 -25 7 -25 1 0 5 11 7 25 3 16 1 25 -7 25 -8 0
-10 -9 -7 -25z"/>
<path d="M2450 425 c0 -16 3 -24 8 -19 4 5 11 11 15 15 4 3 1 12 -8 19 -13 11
-15 9 -15 -15z"/>
<path d="M2481 443 c0 -5 4 -17 9 -28 8 -18 9 -17 9 8 1 15 -3 27 -9 27 -5 0
-10 -3 -9 -7z"/>
</g>
</svg>
